<?xml version="1.0" encoding="iso-8859-1"?>
<!-- Generator: Adobe Illustrator 18.0.0, SVG Export Plug-In . SVG Version: 6.00 Build 0)  -->
<!DOCTYPE svg PUBLIC "-//W3C//DTD SVG 1.1//EN" "http://www.w3.org/Graphics/SVG/1.1/DTD/svg11.dtd">
<svg version="1.1" id="Capa_1" xmlns="http://www.w3.org/2000/svg" xmlns:xlink="http://www.w3.org/1999/xlink" x="0px" y="0px"
	 viewBox="0 0 350.183 350.183" style="enable-background:new 0 0 350.183 350.183;" xml:space="preserve">
<g>
	<path style="fill:#CCCCCC;" d="M340.25,175.087c0,12.66-1.38,24.99-4,36.86c-3.04,13.749-19.063,23.883-25.203,36.16
		c-2.908,5.814,5.185,14.428,1.653,19.84c-30.36,46.52-82.87,77.27-142.57,77.27c-48.32,0-91.94-20.15-122.91-52.5
		C17.97,262.156,0,220.727,0,175.087c0-53.34,24.55-100.95,62.97-132.14c29.25-23.75,66.54-37.98,107.16-37.98
		C264.09,4.966,340.25,81.127,340.25,175.087z"/>
	<path style="fill:#F7931E;" d="M313.555,258.723L313.555,258.723c3.645-3.645,9.554-3.645,13.199,0l4.008,4.008l2.317-2.054
		l9.71-8.57c6.2-5.5,8.55-13.71,6.86-21.25c-0.82-3.58-2.54-6.99-5.18-9.89l-8.22-9.02l-70.35-77.15
		c-3.95-18.75-13.02-36.03-26.19-49.94l-34.16-36.05c0,0-25.64,16.59-15.07,75.42c0,0-56.88,30.16-127.51-81.28
		C24.55,74.137,0,121.747,0,175.087c0,45.64,17.97,87.07,47.22,117.63c41.28-21.12,99.26-50.63,112.26-56.46
		c24.42-10.95,50.46-19.07,67.2-6.42c30.91,23.38,34.69,23.38,56.58,21.88l29.44,16.23l0.633,0.349
		c3.178,1.752,6.939,1.81,10.111,0.316L313.555,258.723z"/>
	<path style="fill:#4D4D4D;" d="M291.284,187.36L291.284,187.36c-9.95,5.501-22.813,1.285-28.729-9.417l0,0l0,0
		C272.506,172.442,285.368,176.658,291.284,187.36L291.284,187.36z"/>
	<path style="fill:#4D4D4D;" d="M342.791,252.104l-9.708,8.576l-9.277-16.586c-0.815-1.426-1.222-3.078-1.222-4.73v-0.385
		c0.249-5.341,4.82-9.436,10.16-9.119l16.904,0.996C351.345,238.392,348.991,246.605,342.791,252.104z"/>
	<path style="fill:#A86F3D;" d="M239.876,134.232c0,0,2.829-39.6-35.074-72.977c0,0-26.589,28.286,5.657,79.766
		c0,0,0.127-23.052,14.709-18.103S239.876,134.232,239.876,134.232z"/>
</g>
<g>
</g>
<g>
</g>
<g>
</g>
<g>
</g>
<g>
</g>
<g>
</g>
<g>
</g>
<g>
</g>
<g>
</g>
<g>
</g>
<g>
</g>
<g>
</g>
<g>
</g>
<g>
</g>
<g>
</g>
</svg>
