<?xml version="1.0" encoding="iso-8859-1"?>
<!-- Generator: Adobe Illustrator 18.0.0, SVG Export Plug-In . SVG Version: 6.00 Build 0)  -->
<!DOCTYPE svg PUBLIC "-//W3C//DTD SVG 1.1//EN" "http://www.w3.org/Graphics/SVG/1.1/DTD/svg11.dtd">
<svg version="1.1" id="Capa_1" xmlns="http://www.w3.org/2000/svg" xmlns:xlink="http://www.w3.org/1999/xlink" x="0px" y="0px"
	 viewBox="0 0 340.25 340.25" style="enable-background:new 0 0 340.25 340.25;" xml:space="preserve">
<g>
	<path style="fill:#7CCFED;" d="M340.25,170.12c0,93.96-76.16,170.13-170.12,170.13c-6.52,0-12.96-0.37-19.3-1.08
		c-26.58-3-51.31-12.13-72.74-25.94C31.11,282.95,0,230.17,0,170.12c0-11.06,1.06-21.88,3.07-32.35
		c2.61-13.55,6.82-26.53,12.44-38.73C42.44,40.58,101.55,0,170.13,0C264.09,0,340.25,76.17,340.25,170.12z"/>
	<path style="fill:#7C7C87;" d="M206.92,275.04c0,0-49.57,28.29-56.07,64.11l-0.02,0.02C65.96,329.59,0,257.56,0,170.12
		c0-11.06,1.06-21.88,3.07-32.35L117.24,89.1L206.92,275.04z"/>
	<path style="fill:#E6E6E6;" d="M276.74,56.32c-23,16-27,38.23-27,53l-78.037,92.703l-0.661,0.301
		c-46.161,21.01-80.334,61.783-92.952,110.906l0,0C31.11,282.95,0,230.17,0,170.12c0-11.06,1.06-21.88,3.07-32.35
		c2.61-13.55,6.82-26.53,12.44-38.73C181.87-28.01,276.74,56.32,276.74,56.32z"/>
	<path style="fill:#878693;" d="M311.19,170.76c0,8.13-0.93,16.04-2.69,23.63c-0.89,3.86-2,7.63-3.31,11.31h-25.45
		c0,8.84,7.16,16,16,16h2.18c-17.84,31.83-51.91,53.34-91,53.34h-6.58c-22.77,0-43.38-9.23-58.3-24.15
		c-14.92-14.92-24.15-35.53-24.15-58.3c0-45.18,33.55-81.94,78.72-82.45l53.13-0.82c0,16.96,6.88,32.32,18,43.44
		c5.71,5.71,12.53,10.3,20.12,13.41C295.05,169.13,302.93,170.76,311.19,170.76z"/>
	<circle style="fill:#4D4D4D;" cx="214.356" cy="168.534" r="16.5"/>
	<path style="fill:#878693;" d="M112.798,122.901L112.798,122.901c-14.708,14.708-14.708,38.553,0,53.261l10.846,10.846
		l53.261-53.261l-10.846-10.846C151.351,108.194,127.506,108.194,112.798,122.901z"/>
	<path style="fill:#6D6D77;" d="M121.99,166.97c-10.669-10.669-9.5-28.761,3.507-37.803c2.86-1.988,6.142-3.34,9.575-3.925
		c8.168-1.391,16.12,1.177,21.795,6.852l14.239,14.24L150.47,166.97C142.606,174.834,129.855,174.834,121.99,166.97L121.99,166.97z"
		/>
	<path style="fill:#4D4D4D;" d="M311.19,170.76c0,8.13-0.93,16.04-2.69,23.63c-11.86-1.34-21.08-11.41-21.08-23.63
		c0-1.57,0.15-3.1,0.44-4.59C295.05,169.13,302.93,170.76,311.19,170.76z"/>
</g>
<g>
</g>
<g>
</g>
<g>
</g>
<g>
</g>
<g>
</g>
<g>
</g>
<g>
</g>
<g>
</g>
<g>
</g>
<g>
</g>
<g>
</g>
<g>
</g>
<g>
</g>
<g>
</g>
<g>
</g>
</svg>
