<?xml version="1.0" encoding="iso-8859-1"?>
<!-- Generator: Adobe Illustrator 18.0.0, SVG Export Plug-In . SVG Version: 6.00 Build 0)  -->
<!DOCTYPE svg PUBLIC "-//W3C//DTD SVG 1.1//EN" "http://www.w3.org/Graphics/SVG/1.1/DTD/svg11.dtd">
<svg version="1.1" id="Capa_1" xmlns="http://www.w3.org/2000/svg" xmlns:xlink="http://www.w3.org/1999/xlink" x="0px" y="0px"
	 viewBox="0 0 353.337 353.337" style="enable-background:new 0 0 353.337 353.337;" xml:space="preserve">
<g>
	<path style="fill:#B4D87D;" d="M346.793,183.217c0,93.96-76.17,170.12-170.13,170.12h-0.78c-88.97-0.4-161.8-69.08-168.79-156.34
		c-0.36-4.55-0.55-9.14-0.55-13.78c0-93.96,76.16-170.13,170.12-170.13S346.793,89.257,346.793,183.217z"/>
	<path style="fill:#808080;" d="M198.993,233.317c-18.62,31.31-22.91,81.89-23.11,120.02c-88.97-0.4-161.8-69.08-168.79-156.34
		c45.18-85.37,94.35-89.92,94.35-89.92S231.993,177.817,198.993,233.317z"/>
	<path style="fill:#999999;" d="M326.775,201.608c0,16.629-6.309,31.771-16.659,43.203c-0.706,0.796-1.457,1.577-2.208,2.328
		c-11.642,11.657-27.745,18.868-45.531,18.868h-15.127c-80.517,0-145.802-65.285-145.802-145.817v-13.114
		c0-36.128,29.278-65.405,65.405-65.405c44.164,0,84.137,17.906,113.085,46.853c19.288,19.288,33.679,43.488,41.115,70.573
		C324.792,172.631,326.775,186.886,326.775,201.608z"/>
	<path style="fill:#999999;" d="M184.29,84.833c-2.473,4.746-6.967,8.909-12.474,12.28c-10.932,6.697-23.742,8.968-36.062,7.016
		c-3.726-0.581-7.418-1.554-10.985-2.915c-2.736-1.026-5.399-2.286-7.968-3.757L98.129,86.753
		C78.098,75.285,70.773,49.778,82.079,29.668l0.243-0.437c16.621-29.009,54.448-38.259,82.73-19.4
		C189.481,26.13,197.826,58.766,184.29,84.833z"/>
	<circle style="fill:#4D4D4D;" cx="271.222" cy="178.274" r="7.426"/>
	<path style="fill:#666666;" d="M326.775,201.608c0,16.629-6.309,31.771-16.659,43.203c-7.18-4.221-12.784-9.734-14.391-16.87
		c-3.801-16.9,13.685-49.572,25.327-68.845C324.792,172.631,326.775,186.886,326.775,201.608z"/>
	<path style="fill:#B4D87D;" d="M319.765,262.116c-5.068-3.52-16.77-6.856-25.989-9.034c-5.597-1.322-9.156-6.817-8.119-12.473l0,0
		c3.001,0.55,29.622,5.588,40.106,12.871L319.765,262.116z"/>
	<path style="fill:#808080;" d="M135.383,19.107c-3.711,0-7.247,0.75-10.465,2.104c9.714,4.088,16.535,13.695,16.535,24.896
		s-6.821,20.807-16.535,24.896c3.218,1.355,6.754,2.104,10.465,2.104c14.912,0,27-12.088,27-27S150.295,19.107,135.383,19.107z"/>
</g>
<g>
</g>
<g>
</g>
<g>
</g>
<g>
</g>
<g>
</g>
<g>
</g>
<g>
</g>
<g>
</g>
<g>
</g>
<g>
</g>
<g>
</g>
<g>
</g>
<g>
</g>
<g>
</g>
<g>
</g>
</svg>
