<?xml version="1.0" encoding="iso-8859-1"?>
<!-- Generator: Adobe Illustrator 18.0.0, SVG Export Plug-In . SVG Version: 6.00 Build 0)  -->
<!DOCTYPE svg PUBLIC "-//W3C//DTD SVG 1.1//EN" "http://www.w3.org/Graphics/SVG/1.1/DTD/svg11.dtd">
<svg version="1.1" id="Capa_1" xmlns="http://www.w3.org/2000/svg" xmlns:xlink="http://www.w3.org/1999/xlink" x="0px" y="0px"
	 viewBox="0 0 369 369" style="enable-background:new 0 0 369 369;" xml:space="preserve">
<g>
	<path style="fill:#F45D5D;" d="M340.31,184.495c0,11.77-1.19,23.25-3.47,34.34c-15.88,77.52-84.47,135.82-166.68,135.82
		c-33.74,0-65.18-9.81-91.63-26.75C31.3,297.665,0,244.735,0,184.495c0-22.22,4.26-43.45,12.01-62.91
		c25.02-62.83,86.4-107.24,158.15-107.24c85.94,0,157,63.72,168.52,146.49C339.75,168.565,340.31,176.465,340.31,184.495z"/>
	<path style="fill:#F2F2F2;" d="M346.75,164.415l-8.07-3.58l-122.17-54.166c6.233-16.86,13.006-44.989-4.371-58.382
		c-22.616-17.432-71.5-6.535-59.605,41.152c-10.215-0.038-20.46,1.214-30.485,3.796l-110.04,28.35C4.26,141.045,0,162.275,0,184.495
		c0,36.54,11.52,70.39,31.12,98.13c5.47,7.73,11.57,14.99,18.23,21.7c8.81,8.89,18.6,16.8,29.18,23.58l86.803-16.896l-2.288,15.692
		c-0.553,3.793,4.454,5.666,6.525,2.439l15.085-23.498c4.614-7.188-0.547-16.633-9.088-16.633H111.87l50.771-59.233H298.8
		c12.525,0,24.475-3.259,34.917-9.1h-13.205c0-6.996,5.671-12.667,12.667-12.667h17.031c3.374-3.473,6.427-7.284,9.06-11.423
		c3.02-4.75,5.51-9.91,7.38-15.41l2.35-6.9L346.75,164.415z"/>
	<path style="fill:#4D4D4D;" d="M261.038,154.616c5.059,3.735,6.072,10.867,2.261,15.929c-3.811,5.062-11.002,6.137-16.061,2.402
		s-6.072-10.867-2.261-15.929C248.787,151.956,255.978,150.881,261.038,154.616z"/>
	<path style="fill:#B3B3B3;" d="M53,253.675l-3.65,50.65c-6.66-6.71-12.76-13.97-18.23-21.7L53,253.675z"/>
	<path style="fill:#B3B3B3;" d="M190,103.008l14,4.667c0,0,19.333-35.333-2-55.333S164,88.342,190,103.008z"/>
	<path style="fill:#4D4D4D;" d="M369,174.275l-2.35,6.9c-1.87,5.5-4.36,10.66-7.38,15.41c-8.6-3.75-14.61-12.33-14.61-22.31
		c0-3.51,0.74-6.85,2.09-9.86L369,174.275z"/>
</g>
<g>
</g>
<g>
</g>
<g>
</g>
<g>
</g>
<g>
</g>
<g>
</g>
<g>
</g>
<g>
</g>
<g>
</g>
<g>
</g>
<g>
</g>
<g>
</g>
<g>
</g>
<g>
</g>
<g>
</g>
</svg>
