<?xml version="1.0" encoding="iso-8859-1"?>
<!-- Generator: Adobe Illustrator 18.0.0, SVG Export Plug-In . SVG Version: 6.00 Build 0)  -->
<!DOCTYPE svg PUBLIC "-//W3C//DTD SVG 1.1//EN" "http://www.w3.org/Graphics/SVG/1.1/DTD/svg11.dtd">
<svg version="1.1" id="Capa_1" xmlns="http://www.w3.org/2000/svg" xmlns:xlink="http://www.w3.org/1999/xlink" x="0px" y="0px"
	 viewBox="0 0 350.312 350.312" style="enable-background:new 0 0 350.312 350.312;" xml:space="preserve">
<g>
	<path style="fill:#00A99D;" d="M340.31,175.161c0,48.23-20.07,91.78-52.32,122.73c-30.57,29.37-72.1,47.42-117.83,47.42
		c-29.12,0-56.54-7.32-80.51-20.23c-2.18-1.17-4.33-2.39-6.45-3.65c-1.86-1.11-3.71-2.25-5.52-3.43
		C30.93,287.691,0,235.031,0,175.161c0-37.39,12.05-71.96,32.49-100.03c30.94-42.51,81.08-70.13,137.67-70.13
		C264.13,5.001,340.31,81.181,340.31,175.161z"/>
	<path style="fill:#B27538;" d="M174.45,251.011c0,13.88-1.58,27.39-4.55,40.36l-86.7,30.06c-6.24-3.71-12.22-7.82-17.91-12.27
		c-2.27-1.78-4.49-3.62-6.67-5.5c-14.08-12.23-26.13-26.74-35.58-42.95c-2.79-4.78-5.35-9.71-7.67-14.78
		c-0.99-2.15-1.93-4.34-2.82-6.54c-2.11-5.14-3.96-10.4-5.54-15.77C2.44,208.261,0,192.001,0,175.161c0-2.32,0.05-4.62,0.14-6.92
		c0.11-2.9,0.3-5.78,0.57-8.64c2.84-31.4,14.21-60.34,31.78-84.47C113.63,92.541,174.45,164.671,174.45,251.011z"/>
	<path style="fill:#935C2B;" d="M0.71,159.601c-0.27,2.86-0.46,5.74-0.57,8.64c43.15,2.88,77.37,38.91,77.37,82.77
		c0,19.97-7.1,38.32-18.89,52.65c2.18,1.88,4.4,3.72,6.67,5.5c13.05-15.82,20.88-36.09,20.88-58.15
		C86.17,202.561,48.37,162.771,0.71,159.601z"/>
	<path style="fill:#E0BF63;" d="M347.875,101.147c-0.577,0.938-1.255,1.819-2.006,2.626c-3.016,3.262-7.331,5.296-12.136,5.296
		c-2.366,0-4.618-0.505-6.667-1.399c-23.075,46.972-22.209,98.62-22.195,99.212l-14.431,0.347
		c-0.058-2.627-1.068-58.647,25.542-109.66c0.808-1.559,1.183-3.291,1.169-5.051v-0.014c0-9.38,7.778-16.928,17.23-16.567
		c4.026,0.144,7.721,1.804,10.535,4.402c2.136,1.962,3.752,4.459,4.647,7.258c0.433,1.356,0.678,2.785,0.736,4.257
		C350.43,95.274,349.521,98.463,347.875,101.147z"/>
	<path style="fill:#F7D56B;" d="M321.93,187.031l-57.565-13.74c1.448-18.958,6.19-52.346,21.573-83.66
		c2.049,0.895,4.3,1.399,6.667,1.399c4.806,0,9.12-2.034,12.136-5.296c0.75-0.808,1.428-1.688,2.006-2.626
		c1.645-2.684,2.554-5.873,2.424-9.293c-0.057-1.472-0.303-2.901-0.736-4.257c-0.895-2.8-2.511-5.296-4.647-7.258
		c-2.814-2.598-6.508-4.257-10.534-4.402c-9.452-0.361-17.23,7.187-17.23,16.567v0.014c0.014,1.76-0.361,3.492-1.169,5.051
		c-8.594,16.475-14.307,33.472-18.102,49.024c-8.985,36.826-22.644,72.351-41.26,105.371l-29.174,51.747l-16.42,5.7l-86.7,30.06
		c25.45,15.17,55.19,23.88,86.96,23.88c45.73,0,87.26-18.05,117.83-47.42l5.19-49.26v0c0.32-2.978,2.375-5.53,5.258-6.341
		c5.611-1.577,10.768-4.298,15.192-7.919c5.62-4.61,10.05-10.69,12.67-17.74l4.7-12.61
		C333.69,196.781,329.45,188.821,321.93,187.031z"/>
	<path style="fill:#935C2B;" d="M183.91,289.921l-94.26,35.16c-2.18-1.17-4.33-2.39-6.45-3.65c-1.86-1.11-3.71-2.25-5.52-3.43
		l102.44-38.22c1.94-0.72,4.1,0.26,4.83,2.2l1.16,3.12C186.83,287.041,185.85,289.201,183.91,289.921z"/>
	<path style="fill:#935C2B;" d="M7.01,223.621c1.58,5.37,3.43,10.63,5.54,15.77c1.29,1.98,2.25,4.18,2.82,6.54
		c2.32,5.07,4.88,10,7.67,14.78c1.05-3.05,1.61-6.31,1.61-9.7C24.65,238.861,17.41,228.361,7.01,223.621z"/>
	<circle style="fill:#4D4D4D;" cx="335.713" cy="92.536" r="12.064"/>
	<circle style="fill:#4D4D4D;" cx="296.113" cy="74.868" r="12.064"/>
</g>
<g>
</g>
<g>
</g>
<g>
</g>
<g>
</g>
<g>
</g>
<g>
</g>
<g>
</g>
<g>
</g>
<g>
</g>
<g>
</g>
<g>
</g>
<g>
</g>
<g>
</g>
<g>
</g>
<g>
</g>
</svg>
